<svg width="136" height="76" viewBox="0 0 136 76" fill="none" xmlns="http://www.w3.org/2000/svg">
<path d="M78.1101 13.1722C76.817 13.5436 76.007 15.5094 76.4743 17.1347C76.6145 17.6145 76.5834 17.661 75.8668 18.1872C74.0129 19.5339 73.3742 21.6854 74.3245 23.3726C75.1969 24.9049 77.4246 25.4931 79.5744 24.7656L80.478 24.4561L81.0855 24.7656C82.1605 25.3074 83.656 25.0907 84.4193 24.2858C84.5907 24.1001 84.7465 23.8214 84.7465 23.6976C84.7465 23.5119 84.6842 23.5273 84.4661 23.775C83.952 24.4096 83.6092 24.4715 82.8615 24.1001C81.88 23.6047 81.8333 23.4345 82.3007 22.2736C82.5343 21.7164 82.7524 20.9579 82.7992 20.5709C82.955 19.4874 83.1886 19.0385 83.6404 18.9457C84.9646 18.6516 84.8555 18.6051 82.7992 18.6051C81.1634 18.6051 80.8051 18.6361 81.366 18.729C82.4876 18.9147 82.6122 19.085 82.5343 20.1994C82.4564 21.0817 81.88 22.7534 81.6308 22.7534C81.3192 22.7534 78.1568 16.9489 78.3905 16.8096C78.9201 16.5001 79.6991 15.8035 79.9327 15.4166C80.2599 14.8903 80.3222 14.0699 80.0729 13.621C79.9483 13.3734 78.9824 12.9709 78.6709 13.0174C78.6241 13.0174 78.3749 13.0948 78.1101 13.1722ZM79.5744 13.7139C80.2287 14.1628 79.9172 15.2308 78.8734 16.0821C78.5618 16.3453 78.2658 16.5155 78.2191 16.4846C78.1879 16.4381 78.0945 16.0821 78.0322 15.6797C77.7673 14.0235 78.5618 13.0019 79.5744 13.7139ZM77.1753 19.1314C77.705 20.3078 79.481 23.2952 79.9483 23.7905L80.2755 24.131L79.8548 24.3013C78.7799 24.7037 77.0663 24.162 76.3497 23.2178C75.5396 22.1188 75.2748 20.184 75.7889 19.1779C76.0849 18.6206 76.4743 18.1098 76.6301 18.1098C76.6768 18.1098 76.9261 18.5742 77.1753 19.1314Z" fill="#222D48"/>
<path d="M5.06282 13.3734C4.11253 13.6674 3.56728 13.9925 2.91299 14.6581C1.57324 15.9738 1.01241 17.5526 1.13704 19.6267C1.27725 21.8866 2.47679 23.7131 4.40852 24.6263C5.56133 25.1681 6.6674 25.2145 8.49008 24.812C9.58057 24.5799 9.67404 24.5799 9.93887 24.812C10.0947 24.9668 10.2816 25.0752 10.3283 25.0752C10.3906 25.0752 10.4374 24.2084 10.4374 23.1404C10.4374 21.9485 10.3751 21.2055 10.2816 21.2055C10.2037 21.2055 10.1258 21.4222 10.1258 21.6699C10.1258 23.3261 8.50566 24.7966 6.68298 24.7966C4.45526 24.7966 3.6296 23.8369 3.25571 20.896C2.83509 17.4597 3.59844 14.3949 5.03166 13.7294C5.68595 13.4198 6.99454 13.3888 7.68 13.6674C8.75491 14.1163 9.81425 15.401 9.81425 16.2524C9.81425 16.4226 9.89214 16.5619 9.97003 16.5619C10.0635 16.5619 10.1258 15.8964 10.1258 14.8593C10.1258 13.9151 10.0947 13.1567 10.0791 13.1567C10.0479 13.1567 9.81425 13.265 9.56499 13.3888C9.15995 13.5746 8.98859 13.5746 8.17851 13.3888C7.04128 13.1257 5.88847 13.1102 5.06282 13.3734Z" fill="#222D48"/>
<path d="M14.6906 13.3734C13.1483 13.8687 11.793 15.1844 11.201 16.7477C10.6869 18.0943 10.6869 20.2459 11.201 21.5461C11.6839 22.7689 12.8991 24.0691 14.0986 24.6418C14.8775 24.9978 15.2358 25.0752 16.2796 25.0752C17.9309 25.0752 19.0525 24.5644 20.2054 23.3261C21.3426 22.0723 21.7165 21.0662 21.7165 19.1159C21.732 17.6919 21.7009 17.4907 21.2335 16.531C20.2209 14.395 18.6631 13.296 16.5288 13.2031C15.8122 13.1721 15.08 13.2495 14.6906 13.3734ZM17.7907 13.7139C19.0681 14.3795 19.4887 15.5094 19.5978 18.5742C19.738 23.1868 18.8812 24.7966 16.2796 24.7966C13.678 24.7966 12.8056 23.1713 12.9614 18.5587C13.0704 15.6178 13.5222 14.3795 14.7217 13.7294C15.3449 13.3888 17.152 13.3888 17.7907 13.7139Z" fill="#222D48"/>
<path d="M100.06 13.3736C98.0664 14.0237 96.6643 15.7728 96.2437 18.1101C95.8075 20.6176 97.085 23.3418 99.2659 24.5492C100.029 24.9671 100.216 24.998 101.649 24.998C103.005 24.998 103.301 24.9516 103.971 24.6111C105.046 24.0693 105.98 23.0787 106.588 21.8559C107.071 20.8807 107.102 20.7259 107.102 19.1936C107.086 17.1813 106.744 16.1907 105.606 14.9369C104.531 13.776 103.441 13.2807 101.899 13.2033C101.182 13.1724 100.45 13.2498 100.06 13.3736ZM103.238 13.7296C104.485 14.3178 105.061 16.0359 105.061 19.271C105.061 23.3728 104.173 24.8123 101.634 24.7968C100.528 24.7813 99.9514 24.5492 99.2815 23.7907C98.5649 22.9858 98.378 21.9642 98.378 19.1162C98.3935 15.7418 98.7674 14.55 100.076 13.7606C100.715 13.3736 102.46 13.3581 103.238 13.7296Z" fill="#222D48"/>
<path d="M21.7629 13.5746L22.573 13.6365L22.6198 18.1563L22.6665 22.676L23.0871 23.388C23.3831 23.8833 23.7414 24.2239 24.3334 24.5334C25.0656 24.9359 25.346 24.9978 26.7481 25.0442C28.1813 25.1062 28.415 25.0752 29.1783 24.7192C30.2532 24.2394 30.7985 23.4809 31.001 22.1962C31.0944 21.7009 31.1568 19.5648 31.1568 17.4442V13.621H32.2473H33.3377V19.1159V24.6108H32.5588C32.1382 24.6108 31.7799 24.6728 31.7799 24.7656C31.7799 24.8585 32.4498 24.9204 33.4935 24.9204C34.5373 24.9204 35.2072 24.8585 35.2072 24.7656C35.2072 24.6728 34.8644 24.6108 34.4282 24.6108H33.6493V19.3172V14.0235L35.1449 16.175C35.9549 17.3668 37.653 19.8589 38.9148 21.7009C40.1767 23.5428 41.2983 25.0597 41.4074 25.0752C41.5476 25.0752 41.5943 23.8369 41.5943 19.3481V13.621H42.3733H43.1522V15.3237C43.1522 16.3607 43.2145 17.0263 43.308 17.0263C43.4014 17.0263 43.4638 16.7632 43.4638 16.4381C43.4793 15.6642 43.9467 14.6736 44.5075 14.2711C44.9437 13.9616 46.0186 13.6365 46.6262 13.621C46.8754 13.621 46.891 13.977 46.891 19.1159V24.6108H46.1121C45.6915 24.6108 45.3332 24.6728 45.3332 24.7656C45.3332 24.8585 46.299 24.9204 47.9036 24.9204C49.5082 24.9204 50.4741 24.8585 50.4741 24.7656C50.4741 24.6728 50.1313 24.6108 49.6951 24.6108H48.9162V19.1005V13.5746L49.7263 13.6829C51.3932 13.8996 52.1721 14.5962 52.5616 16.1905L52.7797 17.1037L52.7953 15.2772L52.8108 13.4662L46.2367 13.4972C42.6069 13.5127 40.0209 13.5436 40.4727 13.5746L41.2828 13.6365V17.599C41.2828 19.7815 41.2516 21.5306 41.2049 21.4842C41.1581 21.4377 39.9119 19.6422 38.4319 17.4752L35.7368 13.5436L32.4654 13.5281C30.6738 13.5281 29.5833 13.5436 30.0351 13.5746L30.8608 13.6365L30.814 18.0789C30.7673 22.4903 30.7673 22.5212 30.3778 23.2178C29.4276 24.8895 26.6234 25.2919 25.4083 23.9143C25.1591 23.6202 24.8631 23.1249 24.7852 22.7998C24.6761 22.4593 24.6138 20.4316 24.6138 17.9241V13.6365L25.4395 13.5746C25.8757 13.5436 25.0656 13.5281 23.6012 13.5281C22.1524 13.5281 21.3112 13.5436 21.7629 13.5746Z" fill="#222D48"/>
<path d="M54.0261 13.5746L54.8362 13.6365V19.1314V24.6108H54.0572C53.6366 24.6108 53.2783 24.6728 53.2783 24.7656C53.2783 24.8585 54.2909 24.9204 56.0046 24.9204C57.7182 24.9204 58.7308 24.8585 58.7308 24.7656C58.7308 24.6728 58.2946 24.6108 57.7182 24.6108H56.7056V21.8092V19.0076L58.0765 19.0695C59.5409 19.1469 60.3042 19.4255 60.6314 20.0137C60.7404 20.1994 60.865 21.0508 60.9274 21.9021C61.0676 24.2858 61.6751 25.0752 63.3732 25.0752C64.23 25.0752 65.1959 24.7037 65.0401 24.4406C64.9778 24.3632 64.8064 24.3941 64.6039 24.5334C64.1365 24.8585 63.6692 24.8275 63.3264 24.4561C63.1083 24.2239 63.0149 23.775 62.937 22.4903C62.8902 21.5616 62.7656 20.6638 62.6566 20.4935C62.2983 19.8434 61.5817 19.3636 60.3821 18.9766C60.1484 18.8992 60.2419 18.7909 60.8962 18.4813C63.2641 17.3049 62.8279 14.364 60.1484 13.621C59.8369 13.5436 58.1544 13.4817 56.394 13.4972C54.6336 13.5127 53.5743 13.5436 54.0261 13.5746ZM59.3695 14.008C59.9459 14.3021 60.2886 14.9831 60.3977 16.0047C60.5067 17.0418 60.2263 18.0169 59.7122 18.4039C59.3851 18.667 59.0891 18.729 58.0142 18.729H56.7056V16.1595V13.5746L57.8117 13.6829C58.4192 13.7294 59.1203 13.8842 59.3695 14.008Z" fill="#222D48"/>
<path d="M62.6566 13.5746L63.5445 13.6365L65.1803 16.7322L66.8316 19.8434V22.2271V24.6108H66.0527C65.6321 24.6108 65.2737 24.6728 65.2737 24.7656C65.2737 24.8585 66.2396 24.9204 67.8442 24.9204C69.4488 24.9204 70.4146 24.8585 70.4146 24.7656C70.4146 24.6728 70.0719 24.6108 69.6357 24.6108H68.8568L68.8724 22.1652V19.7351L70.3835 16.7167L71.8946 13.6984L72.6735 13.6055C73.1564 13.5436 72.7358 13.5127 71.583 13.5127C70.3056 13.5127 69.994 13.5436 70.6016 13.6055L71.4896 13.6984L70.181 16.3917C69.4644 17.8622 68.8568 19.1005 68.8256 19.1159C68.7789 19.1624 66.0682 14.1628 65.928 13.7758C65.8969 13.6984 66.2863 13.6055 66.7849 13.5746C67.2834 13.5436 66.3642 13.5282 64.7285 13.5282C63.1083 13.5282 62.1736 13.5436 62.6566 13.5746Z" fill="#222D48"/>
<path d="M86.3047 15.2463C86.3047 17.0882 86.5072 17.63 86.663 16.2369C86.8499 14.7355 87.7379 13.8996 89.4048 13.6829L90.1993 13.5746V19.1005V24.6108H89.4204C88.9998 24.6108 88.6415 24.6728 88.6415 24.7656C88.6415 24.8585 89.6073 24.9204 91.2119 24.9204C92.8165 24.9204 93.7824 24.8585 93.7824 24.7656C93.7824 24.6728 93.4396 24.6108 93.0034 24.6108H92.2245V19.1159V13.621H92.5828C93.2838 13.621 94.499 14.0854 94.904 14.5033C95.4181 15.0296 95.8076 15.9273 95.8076 16.562C95.8076 16.8096 95.8854 17.0263 95.9633 17.0263C96.0568 17.0263 96.1191 16.3298 96.1191 15.2463V13.4662H91.2119H86.3047V15.2463Z" fill="#222D48"/>
<path d="M106.089 13.5746L106.961 13.6365L109.283 19.3481C110.56 22.5057 111.682 25.0752 111.775 25.0752C111.869 25.0752 112.57 23.2952 113.333 21.1281C114.112 18.9611 114.782 17.1811 114.828 17.1811C114.875 17.1811 115.592 18.9457 116.402 21.0817C117.259 23.3106 117.975 24.9978 118.084 24.9978C118.193 24.9978 119.081 22.7534 120.219 19.5029C121.294 16.4846 122.244 13.9151 122.322 13.8068C122.415 13.6984 122.851 13.621 123.397 13.621H124.316V19.1159V24.6108H123.537C123.116 24.6108 122.758 24.6728 122.758 24.7656C122.758 24.8585 123.428 24.9204 124.456 24.9204C125.437 24.9204 126.201 24.8585 126.263 24.7656C126.325 24.6728 126.029 24.6108 125.5 24.6108H124.627V19.3172C124.627 16.4072 124.659 14.0699 124.705 14.1163C124.752 14.1628 126.466 16.6239 128.506 19.5958C130.547 22.5522 132.292 25.0133 132.385 25.0442C132.526 25.0907 132.572 23.6666 132.572 19.3636V13.6365L133.398 13.5746C133.834 13.5436 133.398 13.5282 132.417 13.5282C131.435 13.5282 130.999 13.5436 131.451 13.5746L132.261 13.6365V17.6145V21.5925L131.716 20.8186C131.42 20.3852 130.173 18.5742 128.958 16.7941L126.73 13.5436L123.459 13.5282C121.667 13.5282 120.593 13.5436 121.075 13.5746L121.963 13.6365L120.795 16.9954C120.141 18.8373 119.455 20.8031 119.268 21.3448L118.926 22.32L117.337 18.0634C116.464 15.7261 115.748 13.7758 115.748 13.7294C115.748 13.6829 116.153 13.6055 116.651 13.5746C117.134 13.5436 116.308 13.5282 114.813 13.5282C113.317 13.5282 112.414 13.5436 112.819 13.5746L113.551 13.6365L114.112 15.0605L114.657 16.4846L113.676 19.3326C113.13 20.896 112.632 22.1188 112.585 22.0414C112.523 21.933 110.451 16.8096 109.251 13.8222C109.205 13.6984 109.438 13.621 110.015 13.5746C110.467 13.5436 109.579 13.5282 108.036 13.5282C106.494 13.5282 105.622 13.5436 106.089 13.5746Z" fill="#222D48"/>
<path d="M45.0994 26.1744C37.3102 26.7781 31.3125 34.2388 31.3125 43.3402C31.3125 50.3365 35.0358 56.6054 40.7686 59.2367C44.8035 61.0941 49.6016 60.831 53.5118 58.5402C55.0073 57.6734 57.5778 55.1968 58.5592 53.7109C60.6156 50.5532 61.5503 47.3027 61.5503 43.2473C61.5503 36.1117 57.9205 29.9667 52.1098 27.3043C50.0378 26.3447 47.701 25.9732 45.0994 26.1744ZM49.8353 27.0567C52.7329 27.9854 54.4465 30.462 55.3657 35.0127C56.3627 39.873 56.2848 48.6339 55.2254 52.8286C54.244 56.6982 52.3279 58.8652 49.181 59.7011C47.8568 60.0571 44.9748 60.0416 43.6351 59.7011C39.6937 58.6485 37.7308 55.398 37.0921 48.8506C36.874 46.699 36.874 40.4612 37.0765 38.3715C37.7931 31.1895 39.8183 27.7532 43.8376 26.84C45.2396 26.5304 48.5423 26.6388 49.8353 27.0567Z" fill="#222D48"/>
<path d="M97.1318 26.2207C93.9849 26.9482 91.5859 29.2235 90.4175 32.5824C90.0436 33.6504 89.9813 34.0683 89.9813 35.6781C89.9657 38.4178 90.5265 40.0121 92.0844 41.6993C93.5488 43.2936 94.8418 44.0211 98.7675 45.507C105.31 47.9527 107.336 49.5624 107.819 52.6736C108.426 56.5278 104.594 59.9331 99.6244 59.9486C98.0042 59.9641 96.867 59.67 95.3091 58.8651C92.5829 57.4411 89.9657 53.8345 89.6074 50.971C89.5451 50.4912 89.4049 50.0732 89.3114 50.0268C89.1556 49.9804 89.1089 51.0948 89.1089 55.2431C89.1089 60.351 89.1868 61.1559 89.5607 60.1653C89.7164 59.7783 90.4175 59.0973 90.9316 58.8341C91.6014 58.4936 92.7698 58.6329 94.4367 59.2675C97.7394 60.5058 99.157 60.7225 101.525 60.3046C103.986 59.8867 105.747 59.0044 107.414 57.3637C111.807 53.0142 111.791 46.5751 107.367 43.34C106.012 42.3339 104.407 41.56 101.354 40.3991C95.979 38.3559 93.393 36.514 92.5985 34.1457C92.2246 33.0622 92.3648 31.2977 92.8945 30.1832C93.4397 29.0378 94.7171 27.7995 95.9634 27.1958C96.9293 26.7315 97.0695 26.7005 98.7675 26.7005H100.559L101.93 27.3661C104.376 28.558 105.918 30.5237 106.292 32.9539C106.401 33.6504 106.541 34.0529 106.666 34.0529C106.822 34.0529 106.868 33.2015 106.868 30.1058C106.868 26.9172 106.822 26.1588 106.666 26.1588C106.541 26.1588 106.37 26.329 106.261 26.5303C105.778 27.4125 104.485 27.459 102.07 26.7005C100.029 26.0659 98.456 25.9266 97.1318 26.2207Z" fill="#222D48"/>
<path d="M0.93457 27.1651C0.93457 27.3508 1.32403 27.3973 3.16229 27.4282L5.37443 27.4747V43.2628V59.051L3.19345 59.1284C1.2773 59.1903 1.01246 59.2368 0.965727 59.4689C0.918992 59.7321 1.32403 59.7476 7.7891 59.7476C14.2542 59.7476 14.6592 59.7321 14.6125 59.4844C14.5657 59.2368 14.3165 59.2058 12.5717 59.1594L10.5932 59.1129V51.0021V42.8759H17.3699H24.1465V51.0021V59.1284H22.1213C20.2051 59.1284 20.0961 59.1439 20.0961 59.438C20.0961 59.7476 20.2051 59.7476 26.9506 59.7476C32.9327 59.7476 33.8051 59.7166 33.8051 59.5154C33.8051 59.3142 33.478 59.2832 31.7488 59.2832C30.6115 59.2832 29.5834 59.2213 29.4743 59.1594C29.3185 59.051 29.2874 55.7696 29.3185 43.2474L29.3653 27.4747L31.593 27.4282C33.4157 27.3973 33.8051 27.3508 33.8051 27.1651C33.8051 26.9639 32.886 26.9329 26.9506 26.9329C20.9685 26.9329 20.0961 26.9639 20.0961 27.1651C20.0961 27.3663 20.4232 27.3973 22.1213 27.3973H24.1465V34.9044V42.4115H17.3699H10.5932V34.9044V27.3973H12.6184C14.3165 27.3973 14.6436 27.3663 14.6436 27.1651C14.6436 26.9639 13.7712 26.9329 7.7891 26.9329C1.8537 26.9329 0.93457 26.9639 0.93457 27.1651Z" fill="#222D48"/>
<path d="M59.1982 27.165C59.1982 27.3507 59.5877 27.3972 61.426 27.4281L63.6381 27.4746L63.716 40.0896C63.7939 52.6273 63.7939 52.7047 64.1366 53.7108C65.7256 58.3235 70.1655 60.7536 76.4903 60.4595C79.9176 60.3047 82.1297 59.5153 83.9836 57.7817C84.8092 56.9923 85.2143 56.4815 85.6816 55.5063C86.8344 53.1691 86.8189 53.556 86.8812 39.7336L86.9435 27.3972H89.1245C90.9472 27.3972 91.2899 27.3662 91.2899 27.165C91.2899 26.9638 90.6667 26.9328 86.6163 26.9328C82.5659 26.9328 81.9428 26.9638 81.9428 27.165C81.9428 27.3662 82.2855 27.3972 84.1238 27.3972H86.3204L86.2736 39.9658L86.2269 52.5499L85.8063 53.7882C84.7469 56.8685 82.6594 58.6795 79.4035 59.345C75.0883 60.2428 71.5364 58.8962 70.0253 55.8159C68.9348 53.587 68.9348 53.5406 68.9348 39.7801V27.4746L71.1625 27.4281C72.9852 27.3972 73.3746 27.3507 73.3746 27.165C73.3746 26.9638 72.4244 26.9328 66.2864 26.9328C60.1485 26.9328 59.1982 26.9638 59.1982 27.165Z" fill="#222D48"/>
<path d="M108.738 27.1651C108.738 27.3663 109.081 27.3973 110.919 27.3973H113.1V43.2628V59.1284H110.919C108.847 59.1284 108.738 59.1439 108.738 59.438C108.738 59.7476 108.847 59.7476 121.902 59.7476H135.065V54.9492C135.065 50.7854 135.034 50.1508 134.832 50.1508C134.66 50.1508 134.598 50.352 134.598 50.9712C134.598 52.0702 134.24 53.4013 133.585 54.7325C132.604 56.7292 130.703 58.1068 127.977 58.8343C126.871 59.1284 126.279 59.1749 122.603 59.1903L118.474 59.2058L118.428 51.1879L118.396 43.1854H120.094C122.322 43.1854 123.506 43.526 124.597 44.5011C125.516 45.3215 125.968 46.1728 126.201 47.504C126.31 48.1231 126.451 48.4482 126.591 48.4482C126.778 48.4482 126.809 47.5349 126.809 42.8759C126.809 38.1239 126.778 37.3036 126.591 37.3036C126.435 37.3036 126.326 37.5512 126.248 38.0311C126.045 39.4396 125.609 40.3374 124.706 41.1423C123.553 42.1948 122.805 42.4425 120.39 42.5199L118.396 42.5973V34.9818V27.3663L122.416 27.4282C126.061 27.4901 126.497 27.5211 127.354 27.8307C130.143 28.8523 131.825 31.1586 132.09 34.3472C132.168 35.2914 132.23 35.5235 132.464 35.57C132.713 35.6164 132.729 35.3378 132.729 31.2824V26.9329H120.733C110.171 26.9329 108.738 26.9639 108.738 27.1651Z" fill="#222D48"/>
</svg>
