<svg width="207" height="24" viewBox="0 0 207 24" fill="none" xmlns="http://www.w3.org/2000/svg">
<g clip-path="url(#clip0_556_1727)">
<path d="M106.158 13.0101L114.315 23.1453C114.315 23.1971 114.315 23.2835 114.384 23.4561H111.12L102.894 13.3727H100.565C100.071 15.013 100.391 16.7137 100.331 18.3885C100.27 20.0633 100.331 21.6432 100.331 23.4216H97.7331C97.3434 21.9799 97.2136 4.1439 97.5945 0.587066C100.486 0.239035 103.417 0.399736 106.253 1.06188C107.38 1.32707 108.398 1.92882 109.171 2.78662C109.945 3.64443 110.438 4.71737 110.583 5.86187C110.808 7.02474 110.669 8.22859 110.184 9.30979C109.699 10.391 108.892 11.2971 107.873 11.905C107.37 12.2849 106.816 12.6043 106.158 13.0101ZM100.322 3.03886C100.322 4.61872 100.322 5.89641 100.322 7.18274C100.322 8.46907 100.383 9.66907 100.409 10.9295C102.13 11.1677 103.883 10.9718 105.509 10.3597C106.164 10.1663 106.737 9.76296 107.14 9.21207C107.542 8.66118 107.751 7.99345 107.734 7.31223C107.734 5.73237 107.344 4.40289 105.769 3.60865C104.193 2.8144 102.305 3.03886 100.322 3.03886Z" fill="#222D48"/>
<path d="M24.5653 0.569824H27.163V9.9281C28.9467 10.3339 38.2724 10.377 40.5756 10.0058V0.613006H43.3032V23.4216H40.7055C40.7055 21.6432 40.6536 19.8303 40.6449 18.0087C40.6363 16.1871 40.6449 14.4864 40.6449 12.6389H27.4055C27.1881 14.3884 27.1301 16.1538 27.2323 17.9137C27.189 19.6835 27.2323 21.4533 27.2323 23.3612C26.809 23.4504 26.3812 23.5166 25.9508 23.5598C25.5286 23.5614 25.1066 23.5412 24.6865 23.4993C24.3056 21.9367 24.219 3.50508 24.5653 0.569824Z" fill="#222D48"/>
<path d="M140.638 0.569824H143.374C143.374 1.20004 143.461 1.74392 143.461 2.29644C143.461 6.42306 143.461 10.5497 143.461 14.6677C143.473 15.7967 143.63 16.9195 143.928 18.0087C144.133 18.7746 144.552 19.4668 145.136 20.0048C145.72 20.5427 146.445 20.9043 147.227 21.0475C148.613 21.38 150.048 21.4561 151.462 21.272C154.328 20.8058 155.999 18.6303 156.016 15.6605C156.016 11.3957 156.016 7.13097 156.016 2.85759V0.613005H158.614C158.614 1.03603 158.718 1.38135 158.718 1.71804C158.718 6.27631 158.718 10.8259 158.718 15.3756C158.821 17.1634 158.338 18.9362 157.341 20.4259C156.785 21.3063 156.04 22.0526 155.159 22.611C154.279 23.1694 153.285 23.5259 152.25 23.6547C150.701 23.9127 149.124 23.9476 147.565 23.7583C143.236 22.8346 140.932 20.7799 140.638 16.2562C140.387 11.1022 140.638 5.90508 140.638 0.569824Z" fill="#222D48"/>
<path d="M0 17.2057H3.08257C3.25575 17.5942 3.40297 17.9049 3.53285 18.233C3.7678 18.9262 4.15408 19.5588 4.66384 20.0853C5.1736 20.6117 5.79415 21.0188 6.48076 21.2773C7.16738 21.5358 7.90292 21.6391 8.63445 21.58C9.36597 21.5208 10.0752 21.3006 10.7111 20.9351C11.204 20.682 11.6329 20.3205 11.9653 19.878C12.2977 19.4355 12.525 18.9235 12.6301 18.3807C12.7352 17.8378 12.7152 17.2783 12.5718 16.7442C12.4283 16.2102 12.1652 15.7156 11.8021 15.2977C11.0471 14.4356 10.089 13.774 9.01396 13.3726C7.34244 12.7419 5.70637 12.0214 4.11298 11.2143C3.2552 10.8276 2.51157 10.2274 1.95354 9.47148C1.39552 8.71555 1.04186 7.82927 0.92651 6.89775C0.674052 5.47387 0.974846 4.00757 1.76777 2.79687C2.5607 1.58617 3.78626 0.721904 5.19535 0.379748C10.0963 -1.16558 14.6076 1.82147 14.8847 5.93082H12.287C12.0619 5.51643 11.8367 5.06751 11.5856 4.66176C11.0369 3.67965 10.1255 2.94976 9.04525 2.62731C7.96504 2.30486 6.80128 2.41528 5.80148 2.93514C3.51553 3.97111 3.03062 6.38837 4.86631 8.11499C5.62971 8.75589 6.48858 9.27436 7.41203 9.65171C8.84075 10.3165 10.3647 10.774 11.7415 11.4905C12.668 11.8819 13.4885 12.4865 14.1356 13.2548C14.7828 14.023 15.2383 14.9332 15.4648 15.9107C15.7343 17.0298 15.6815 18.202 15.3123 19.2925C14.9431 20.383 14.2727 21.3474 13.378 22.0747C9.49018 25.3208 3.18649 24.2244 1.09103 20.0546C0.677845 19.1245 0.313666 18.1736 0 17.2057Z" fill="#222D48"/>
<path d="M166.528 0.526855H169.94L176.598 9.36714C179.075 6.48368 181.084 3.42756 183.387 0.535471H186.504L178.252 11.5858L186.98 23.37C186.63 23.4555 186.274 23.519 185.915 23.5599C185.197 23.5599 184.487 23.5599 183.733 23.5599L176.503 13.9168L169.273 23.465H166.182L174.901 11.7844L166.528 0.526855Z" fill="#222D48"/>
<path d="M53.9102 23.439V0.785767C55.4341 0.397278 63.1406 0.310952 66.2578 0.656276L66.379 2.72821C64.7598 3.26346 63.1838 2.91815 61.6339 2.97858C60.0839 3.03901 58.508 2.97858 56.8282 2.97858V10.0145C58.3349 10.4807 59.9194 10.1613 61.4694 10.2217C63.0193 10.2822 64.4567 10.2217 66.05 10.2217V12.4491H56.707C56.655 15.393 56.707 18.121 56.707 21.0822H66.2318V23.439H53.9102Z" fill="#222D48"/>
<path d="M87.7406 10.1525V12.5266H78.5015C78.5015 14.0979 78.4409 15.4274 78.4236 16.7569C78.4063 18.0864 78.4236 19.4331 78.4236 20.9612C81.7226 21.1943 84.8658 20.9612 88.1216 21.1166L88.2255 23.2317C86.6149 23.6461 78.9951 23.741 75.7133 23.3957C75.6354 15.8504 75.7133 8.27916 75.7133 0.595703H88.1129V2.84031C86.5766 3.03196 85.0258 3.0811 83.4804 2.98709C81.8958 3.03025 80.3199 2.98709 78.7786 2.98709C78.3147 5.35028 78.3147 7.78071 78.7786 10.1439L87.7406 10.1525Z" fill="#222D48"/>
<path d="M207 21.1252V23.249C205.433 23.6461 197.761 23.741 194.791 23.413C194.445 21.859 194.358 3.41873 194.696 0.595703H206.948V2.84031C205.406 2.99016 203.855 3.02767 202.307 2.95255C200.731 2.95255 199.146 2.95255 197.605 2.95255C197.141 5.33319 197.141 7.78055 197.605 10.1612L202.021 10.2043H206.507V12.4835H197.337C197.337 14.0461 197.267 15.3756 197.259 16.7051C197.25 18.0346 197.259 19.3813 197.259 20.9094C200.558 21.2029 203.71 20.9698 207 21.1252Z" fill="#222D48"/>
<path d="M121.649 23.4389V0.6993C122.385 0.293545 123.199 0.483494 124.247 0.612991V21.0648H133.919C133.99 21.3953 134.042 21.7297 134.075 22.0662C134.075 22.4892 134.075 22.9295 134.014 23.4389H121.649Z" fill="#222D48"/>
</g>
<defs>
<clipPath id="clip0_556_1727">
<rect width="207" height="24" fill="white"/>
</clipPath>
</defs>
</svg>
