<?xml version="1.0" encoding="UTF-8"?><svg xmlns="http://www.w3.org/2000/svg" viewBox="0 0 471.51 390"><g id="a"/><g id="b"><g id="c"><g><path d="M89.65,101.9C40.22,101.9,0,142.12,0,191.55s40.22,89.65,89.65,89.65,89.65-40.22,89.65-89.65-40.22-89.65-89.65-89.65Zm0,163.3c-40.61,0-73.65-33.04-73.65-73.65S49.04,117.9,89.65,117.9s73.65,33.04,73.65,73.65-33.04,73.65-73.65,73.65Z"/><polygon points="97.65 134.05 81.65 134.05 81.65 183.55 32.15 183.55 32.15 199.55 81.65 199.55 81.65 249.05 97.65 249.05 97.65 199.55 147.15 199.55 147.15 183.55 97.65 183.55 97.65 134.05"/><path d="M373.17,39.93h-68.73c-9.81,0-17.78,7.98-17.78,17.78v28.5c0,9.81,7.98,17.78,17.78,17.78h68.73c9.81,0,17.78-7.98,17.78-17.78v-28.5c0-9.81-7.98-17.78-17.78-17.78Zm1.78,46.29c0,.98-.8,1.78-1.78,1.78h-68.73c-.98,0-1.78-.8-1.78-1.78v-28.5c0-.98,.8-1.78,1.78-1.78h68.73c.98,0,1.78,.8,1.78,1.78v28.5Z"/><path d="M440.43,0H237.18c-17.14,0-31.08,13.94-31.08,31.08V358.92c0,17.14,13.94,31.08,31.08,31.08h203.25c17.14,0,31.08-13.94,31.08-31.08V31.08c0-17.14-13.94-31.08-31.08-31.08Zm15.08,358.92c0,8.32-6.77,15.08-15.08,15.08h-116.45c-24.74-4.62-50.91-13.7-68.98-31.2-18.63-18.04-28.12-37.2-32.9-53.1v-122.7h233.41v191.92Zm0-207.92H222.1v-15h233.41v15Zm0-31H222.1V31.08c0-8.32,6.77-15.08,15.08-15.08h203.25c8.32,0,15.08,6.77,15.08,15.08V120Z"/></g></g></g></svg>