<svg width="40" height="30" viewBox="0 0 40 30" fill="none" xmlns="http://www.w3.org/2000/svg">
<path d="M39.9947 0H0V1.66899H3.265C3.23149 1.81832 3.21451 1.9708 3.21435 2.12377V4.64706C3.21519 5.21007 3.44182 5.74978 3.84457 6.14789C4.24731 6.546 4.79331 6.77003 5.36288 6.77086H7.73829L5.26158 29.8237L6.94051 30L7.75095 22.4531H32.2427L33.0542 30L34.7332 29.8237L32.2564 6.77086H34.6318C35.2014 6.77003 35.7474 6.546 36.1502 6.14789C36.5529 5.74978 36.7795 5.21007 36.7804 4.64706V2.12377C36.7799 1.97077 36.7625 1.81828 36.7287 1.66899H40L39.9947 0ZM32.0644 20.782H7.93035L9.43622 6.77086H30.5627L32.0644 20.782ZM35.0919 2.12377V4.64706C35.0903 4.76718 35.0413 4.88193 34.9554 4.96687C34.8694 5.05182 34.7534 5.10025 34.6318 5.10187H9.59557C8.64582 4.92454 7.72879 4.6283 7.0091 4.1443C5.77655 3.31606 5.61087 2.371 5.728 1.66899H34.6318C34.7534 1.67061 34.8694 1.71904 34.9554 1.80398C35.0413 1.88893 35.0903 2.00365 35.0919 2.12377Z" fill="black"/>
</svg>
