<svg width="32" height="36" viewBox="0 0 32 36" fill="none" xmlns="http://www.w3.org/2000/svg">
<path d="M6.88497 9.63835H13.2277C14.133 9.63835 14.8686 8.90191 14.8686 7.99752V5.36739C14.8686 4.46208 14.1321 3.72656 13.2277 3.72656H6.88497C5.97965 3.72656 5.24414 4.463 5.24414 5.36739V7.99752C5.24414 8.90284 5.98058 9.63835 6.88497 9.63835ZM6.7207 5.36647C6.7207 5.27603 6.79453 5.2022 6.88497 5.2022H13.2277C13.3182 5.2022 13.392 5.27603 13.392 5.36647V7.9966C13.392 8.08704 13.3182 8.16086 13.2277 8.16086H6.88497C6.79453 8.16086 6.7207 8.08704 6.7207 7.9966V5.36647Z" fill="black"/>
<path d="M17.9787 9.68913H24.3215C25.2268 9.68913 25.9623 8.9527 25.9623 8.0483V5.41817C25.9623 4.51286 25.2259 3.77734 24.3215 3.77734H17.9787C17.0734 3.77734 16.3379 4.51378 16.3379 5.41817V8.0483C16.3379 8.95362 17.0743 9.68913 17.9787 9.68913ZM17.8145 5.41725C17.8145 5.32681 17.8883 5.25298 17.9787 5.25298H24.3215C24.4119 5.25298 24.4857 5.32681 24.4857 5.41725V8.04738C24.4857 8.13782 24.4119 8.21165 24.3215 8.21165H17.9787C17.8883 8.21165 17.8145 8.13782 17.8145 8.04738V5.41725Z" fill="black"/>
<path d="M28.2762 0H3.0085C1.34921 0 0 1.34921 0 3.0085V32.9827C0 34.6411 1.34921 35.9912 3.0085 35.9912H28.2762C29.9355 35.9912 31.2847 34.642 31.2847 32.9827V3.0085C31.2847 1.35013 29.9355 0 28.2762 0ZM3.0085 1.47656H28.2762C29.1206 1.47656 29.8081 2.16409 29.8081 3.0085V11.0742H1.47656V3.0085C1.47656 2.16409 2.16409 1.47656 3.0085 1.47656ZM29.8081 12.5508V13.9351H1.47656V12.5508H29.8081ZM28.2762 34.5146H10.7697C8.48654 34.0883 6.07144 33.2503 4.40385 31.6354C2.81562 30.0979 1.94722 28.4709 1.47656 27.0755V15.4116H29.8081V32.9827C29.8081 33.8271 29.1206 34.5146 28.2762 34.5146Z" fill="black"/>
</svg>
