<svg width="44" height="38" viewBox="0 0 44 38" fill="none" xmlns="http://www.w3.org/2000/svg">
<path d="M43.8376 20.5661C43.6823 20.3563 43.4376 20.2323 43.1775 20.2323H9.95575V6.08446C9.95575 6.0762 9.95575 6.06483 9.95575 6.05656C9.95575 6.0328 9.89612 3.69739 11.0928 2.44081C11.5873 1.92103 12.2288 1.66372 13.0543 1.65339C13.8768 1.64305 14.5018 1.88073 14.9727 2.38088C16.1375 3.61575 15.9946 6.00593 15.9935 6.02763C15.9617 6.48334 16.303 6.87809 16.7564 6.91012C17.2118 6.94216 17.6025 6.59908 17.6343 6.14337C17.6436 6.01626 17.8317 3.0164 16.1724 1.24934C15.3932 0.419547 14.362 0 13.1047 0C13.0811 0 13.0574 0 13.0338 0C11.759 0.0155005 10.7042 0.454681 9.89818 1.30411C8.27179 3.0195 8.30468 5.82509 8.31188 6.09583V20.2323H0.822454C0.562355 20.2323 0.317672 20.3563 0.162434 20.5661C0.00719717 20.7758 -0.0400926 21.0476 0.0349558 21.2977C0.0472926 21.338 1.28097 25.4219 3.05027 29.4499C5.57827 35.2027 7.89757 38 10.1398 38C12.382 38 17.3352 37.9938 22.1208 37.9876C26.8519 37.9814 31.7435 37.9752 33.9384 37.9752C36.1333 37.9752 38.4515 35.182 40.9641 29.4365C42.7221 25.4146 43.9527 21.339 43.965 21.2977C44.0401 21.0476 43.9928 20.7758 43.8376 20.5661ZM39.4529 28.7834C36.4756 35.5871 34.6045 36.3218 33.9384 36.3218C31.7774 36.3218 27.0051 36.328 22.3439 36.3342C19.5095 35.7741 14.8956 34.6436 10.7998 32.642C7.43701 30.9989 5.39424 29.2815 4.15748 27.8575C3.15615 25.4684 2.36762 23.1743 1.94715 21.8857H42.0529C41.5779 23.3396 40.6372 26.076 39.4529 28.7834Z" fill="black"/>
</svg>
