<svg width="29" height="38" viewBox="0 0 29 38" fill="none" xmlns="http://www.w3.org/2000/svg">
<path d="M21.2686 9.97166L6.08398 25.1562L7.24411 26.3164L22.4287 11.1318L21.2686 9.97166Z" fill="black"/>
<path d="M22.4606 15.5414L11.6504 26.3516L12.8105 27.5117L23.6207 16.7015L22.4606 15.5414Z" fill="black"/>
<path d="M15.7076 8.78552L4.89746 19.5957L6.05759 20.7558L16.8678 9.94565L15.7076 8.78552Z" fill="black"/>
<path d="M25.1637 0H3.34287C1.50019 0 0 1.49916 0 3.34285V34.6484C0 36.4921 1.49917 37.9912 3.34287 37.9912H25.1637C27.0064 37.9912 28.5066 36.4921 28.5066 34.6484V3.34285C28.5066 1.50018 27.0074 0 25.1637 0ZM26.8659 34.6484C26.8659 35.5866 26.1019 36.3505 25.1637 36.3505H12.1379C9.60098 35.8768 6.91744 34.9457 5.06452 33.1512C3.08752 31.2368 2.11441 29.1983 1.64067 27.5361V3.34285C1.64067 2.4046 2.40461 1.64067 3.34287 1.64067H25.1637C26.1019 1.64067 26.8659 2.4046 26.8659 3.34285V34.6484Z" fill="black"/>
</svg>
