<svg width="32" height="33" viewBox="0 0 32 33" fill="none" xmlns="http://www.w3.org/2000/svg">
<path d="M29.1435 15.9733H28.2882C28.0028 15.461 27.4593 15.1129 26.8366 15.1129H17.4455C16.5272 15.1129 15.7796 15.8686 15.7796 16.7967V19.5195C15.7796 21.5811 16.9193 23.3953 18.636 24.4343H14.3392V11.1222C14.3971 10.5904 14.7231 9.26078 15.3499 9.26078H18.2348V12.0123H26.0494V9.26078H30.9232L30.9913 8.51437C31.039 7.98254 31.4047 3.25872 29.4432 1.08624C28.8012 0.375766 27.9571 0 27.0012 0H6.13955C1.70046 0 0.0934554 6.077 0.026412 6.33573L0 6.43737V30.0267C0 31.6663 1.22405 33 2.72745 33H28.275C29.7774 33 31.0004 31.6694 31.0025 30.0329L31.0289 27.9589H31.0309C31.0431 27.6304 31.0614 25.9415 30.1847 25.0205C29.8211 24.6386 29.3498 24.4364 28.8236 24.4364H25.6441C26.5502 23.8881 27.2948 23.1232 27.7966 22.2197C27.8718 22.2351 27.95 22.2433 28.0302 22.2433H29.1405C30.717 22.2433 32 20.8686 32 19.1797V19.039C32 17.3501 30.717 15.9754 29.1405 15.9754L29.1435 15.9733ZM24.4241 10.3686H19.8601V9.36242H24.4241V10.3686ZM29.0156 26.1571C29.2807 26.4343 29.3985 27.1838 29.4097 27.7094H29.4087L29.3792 30.0144V30.0246C29.3792 30.7464 28.8744 31.3552 28.2771 31.3552H11.2592C8.83855 30.8634 6.32138 29.9353 4.56098 28.2125C3.09619 26.7793 2.18805 25.2752 1.62631 23.9127V6.65298C1.71976 6.32855 2.06616 5.21458 2.72542 4.10369C3.6945 2.47022 4.84337 1.64271 6.13955 1.64271H27.0012C27.5081 1.64271 27.9022 1.81725 28.2415 2.19302C29.299 3.36242 29.4564 6.05338 29.4137 7.61807H15.3499C13.5174 7.61807 12.8327 9.74743 12.7169 11.0051L12.7139 26.077H28.8266C28.9109 26.077 28.9587 26.0975 29.0156 26.1571ZM22.3102 23.7156H21.9719C19.4537 23.7156 17.4049 21.8337 17.4049 19.5205V16.7978C17.4049 16.7752 17.4231 16.7567 17.4455 16.7567H26.8366C26.859 16.7567 26.8773 16.7752 26.8773 16.7978V17.0133C26.8722 17.0585 26.8681 17.1047 26.8681 17.1509V19.769C26.7269 21.9672 24.737 23.7156 22.3102 23.7156ZM30.3778 19.1787C30.3778 19.962 29.8241 20.5996 29.1435 20.5996H28.4934V19.8285C28.4995 19.7269 28.5026 19.6242 28.5026 19.5205V17.6171H29.1435C29.8241 17.6171 30.3778 18.2546 30.3778 19.038V19.1787Z" fill="black"/>
</svg>
