<svg width="25" height="43" viewBox="0 0 25 43" fill="none" xmlns="http://www.w3.org/2000/svg">
<path d="M4.82384 9.22183L0.232778 14.0291C0.15898 14.1063 0.100437 14.1981 0.0604974 14.299C0.0205578 14.4 0 14.5082 0 14.6175C0 14.7268 0.0205578 14.835 0.0604974 14.9359C0.100437 15.0369 0.15898 15.1287 0.232778 15.2059C0.306577 15.2832 0.394186 15.3445 0.490609 15.3863C0.587031 15.4281 0.690377 15.4497 0.794744 15.4497C0.899111 15.4497 1.00246 15.4281 1.09888 15.3863C1.1953 15.3445 1.28292 15.2832 1.35672 15.2059L5.94678 10.3987C6.08946 10.2415 6.16782 10.0321 6.16517 9.8152C6.16252 9.59832 6.07906 9.39111 5.93259 9.23774C5.78612 9.08438 5.58823 8.99699 5.3811 8.99421C5.17398 8.99143 4.97401 9.07348 4.82384 9.22287V9.22183Z" fill="black"/>
<path d="M7.53454 8.94141C7.32387 8.94141 7.12184 9.02904 6.97288 9.18502C6.82392 9.34099 6.74023 9.55253 6.74023 9.77311V16.5712C6.74023 16.7918 6.82392 17.0033 6.97288 17.1593C7.12184 17.3153 7.32387 17.4029 7.53454 17.4029C7.7452 17.4029 7.94723 17.3153 8.09619 17.1593C8.24515 17.0033 8.32884 16.7918 8.32884 16.5712V9.77311C8.32884 9.66389 8.30829 9.55573 8.26837 9.45482C8.22845 9.35392 8.16995 9.26225 8.09619 9.18502C8.02243 9.10779 7.93488 9.0465 7.83851 9.00471C7.74214 8.96291 7.63884 8.94141 7.53454 8.94141Z" fill="black"/>
<path d="M18.0329 41.336C18.0492 41.2709 18.0575 41.2038 18.0577 41.1364V6.93999C18.0646 6.64577 18.1064 3.4302 16.3251 1.47258C15.4514 0.513008 14.3066 0.0171151 12.9206 0.000481087C10.7193 -0.0275888 8.94905 1.17317 7.80824 3.4749C7.29782 4.52773 6.95156 5.65928 6.78259 6.82666C6.76956 6.93506 6.77704 7.0451 6.80461 7.15048C6.83218 7.25585 6.8793 7.35451 6.94329 7.44081C7.00727 7.52712 7.08687 7.59939 7.17753 7.65349C7.26818 7.70758 7.36812 7.74245 7.47165 7.7561C7.68073 7.78368 7.89171 7.72313 8.05818 7.58782C8.1406 7.52083 8.20961 7.43749 8.26127 7.34256C8.31294 7.24764 8.34625 7.14299 8.35929 7.03458C8.50758 6.04908 8.8038 5.09435 9.23699 4.20576C10.0938 2.4987 11.329 1.64309 12.9017 1.66388C13.8539 1.67636 14.5965 1.98824 15.1714 2.61721C16.5376 4.11323 16.4701 6.87242 16.4691 6.89841V41.1374C16.4694 41.2047 16.4774 41.2718 16.4929 41.3371H10.3599V43.0005H24.1222V41.3371L18.0329 41.336Z" fill="black"/>
<path d="M14.2751 15.4487C14.432 15.4485 14.5853 15.3995 14.7157 15.3081C14.846 15.2167 14.9477 15.0869 15.0077 14.9351C15.0677 14.7833 15.0834 14.6163 15.0529 14.4552C15.0223 14.294 14.9469 14.1459 14.8361 14.0296L10.246 9.22241C10.0971 9.06635 9.89508 8.97861 9.6844 8.97852C9.47371 8.97842 9.27161 9.06598 9.12257 9.2219C8.97353 9.37782 8.88974 9.58936 8.88965 9.80996C8.88956 10.0306 8.97316 10.2422 9.12207 10.3982L13.7131 15.2055C13.7869 15.2827 13.8746 15.3439 13.971 15.3856C14.0674 15.4274 14.1708 15.4488 14.2751 15.4487Z" fill="black"/>
</svg>
