<svg width="29" height="37" viewBox="0 0 29 37" fill="none" xmlns="http://www.w3.org/2000/svg">
<path d="M29 36.2058L24.0271 26.2399C25.8073 26.2399 26.9911 26.2399 26.9911 26.2399V24.4576C26.9911 24.4576 23.7524 24.4576 19.9275 24.4576C17.7437 23.9263 14.3503 22.9171 10.5646 21.1238L15.1552 11.9219H21.7839V10.1397H3.62878C2.50439 4.81979 1.78132 0.0545805 1.77347 0L0 0.263991C0.0100893 0.327482 0.971936 6.67442 2.41022 12.94C3.25996 16.6415 4.10971 19.6 4.93479 21.7308C5.50091 23.1922 6.0547 24.275 6.62306 25.0123L1.10534 36.0721L2.7129 36.8641L8.06023 26.1463C8.25753 26.2098 8.4582 26.2421 8.66335 26.2421C11.1094 26.2421 17.4825 26.2421 22.0249 26.2421L27.3924 37L29 36.208V36.2058ZM13.1542 11.9208L8.97723 20.2928C7.37864 19.3549 6.20941 18.309 5.35742 17.2597C4.983 15.9442 4.58278 14.3892 4.16127 12.5491C4.11307 12.3396 4.06599 12.1291 4.01891 11.9197H13.1553L13.1542 11.9208Z" fill="black"/>
</svg>
