<svg width="31" height="38" viewBox="0 0 31 38" fill="none" xmlns="http://www.w3.org/2000/svg">
<path d="M31 24.2067L30.8216 23.2287C30.7976 23.0949 28.3776 9.82539 27.6232 6.22877C26.7779 2.19864 21.3109 0.137933 21.0792 0.0518545L20.9383 0H10.0617L9.92078 0.0518545C9.68807 0.137933 4.22105 2.19864 3.37683 6.22877C2.62237 9.82539 0.203483 23.096 0.178439 23.2287L0 24.2067H6.41037V34.9966C6.41037 36.6528 7.66783 38 9.21225 38H21.7867C23.3322 38 24.5886 36.6528 24.5886 34.9966V24.2067H30.999H31ZM25.989 6.56685C26.6183 9.57026 28.4246 19.3998 29.0006 22.5474H24.5907V14.4155H22.921V18.5867H8.8731L21.0782 1.84809C22.6706 2.56575 25.509 4.27695 25.99 6.56788L25.989 6.56685ZM17.6804 1.65831H19.1518L15.3784 6.83442L11.7991 1.65831H17.6804ZM2.00043 22.5463C2.57646 19.3988 4.38177 9.57027 5.01206 6.56582C5.5286 4.10273 8.60178 2.45687 9.91141 1.85743L14.3391 8.25938L8.08106 16.8423V14.4135H6.41142V19.3023C6.40098 19.3759 6.40098 19.4506 6.41142 19.5253V22.5453H2.00148L2.00043 22.5463ZM21.7878 36.3396H16.6025C15.2135 36.0015 13.3811 35.1511 11.3264 33.1744C9.54931 31.4643 8.59238 29.6535 8.08106 28.1114V20.245H11.532C11.1042 21.5414 10.6158 23.6726 11.2241 25.4512L12.8051 24.9171C12.4013 23.7369 12.6768 22.2425 12.9929 21.168C13.8674 22.5536 15.0727 25.0457 14.9516 28.13L16.6202 28.1943C16.7601 24.635 15.3972 21.8204 14.3902 20.2461H22.921V34.9966C22.921 35.7257 22.4024 36.3407 21.7888 36.3407L21.7878 36.3396Z" fill="black"/>
</svg>
