<svg width="34" height="34" viewBox="0 0 34 34" fill="none" xmlns="http://www.w3.org/2000/svg">
<path d="M25.1633 0H24.7183C20.3613 0 16.8164 3.29876 16.8164 7.35428V16.8219C16.8164 17.5715 17.243 18.2216 17.8654 18.5457V27.0566C17.8654 30.8527 20.954 33.9413 24.75 33.9413H25.1315C28.9276 33.9413 32.0161 30.8527 32.0161 27.0566V18.5457C32.6386 18.2216 33.0651 17.5715 33.0651 16.8219V7.35428C33.0651 3.29876 29.5203 0 25.1633 0ZM18.4571 7.35428C18.4571 4.2042 21.2657 1.64067 24.7183 1.64067H25.1633C28.6159 1.64067 31.4245 4.2042 31.4245 7.35428V16.8219C31.4245 16.9891 31.2881 17.1244 31.122 17.1244H18.7596C18.5924 17.1244 18.4571 16.9891 18.4571 16.8219V7.35428ZM25.1315 32.3006H24.75C21.8584 32.3006 19.5061 29.9483 19.5061 27.0566V18.7651H30.3755V27.0566C30.3755 29.9483 28.0232 32.3006 25.1315 32.3006Z" fill="black"/>
<path d="M29.9002 12.6133H19.9824V14.2539H29.9002V12.6133Z" fill="black"/>
<path d="M8.34688 0H7.90185C3.54486 0 0 3.29876 0 7.35428V16.8219C0 17.5715 0.426573 18.2216 1.049 18.5457V27.0566C1.049 30.8527 4.13755 33.9413 7.93364 33.9413H8.3151C12.1112 33.9413 15.1997 30.8527 15.1997 27.0566V18.5457C15.8222 18.2216 16.2487 17.5715 16.2487 16.8219V7.35428C16.2487 3.29876 12.7039 0 8.34688 0ZM9.89834 32.0555C8.85857 31.9817 7.29481 31.5469 5.30858 30.0447C3.90683 28.9844 3.11624 26.3891 2.68864 24.2695V18.7651H13.558V27.0566C13.558 29.3966 12.0179 31.3829 9.89731 32.0555H9.89834ZM14.6081 16.8219C14.6081 16.9891 14.4727 17.1244 14.3056 17.1244H1.94316C1.77602 17.1244 1.64067 16.9891 1.64067 16.8219V7.35428C1.64067 4.2042 4.44928 1.64067 7.90185 1.64067H8.34688C11.7995 1.64067 14.6081 4.2042 14.6081 7.35428V16.8219Z" fill="black"/>
<path d="M13.0829 12.6133H3.16504V14.2539H13.0829V12.6133Z" fill="black"/>
</svg>
