<svg width="28" height="33" viewBox="0 0 28 33" fill="none" xmlns="http://www.w3.org/2000/svg">
<path d="M24.8394 0.000844898H6.93997C6.80661 0.000844898 6.67493 0.0101311 6.54663 0.0287008C6.36094 0.0101311 6.17186 0.000844898 5.9811 0.000844898H5.66711C2.54235 0.000844898 0 2.54319 0 5.66795V26.915C0 30.0397 2.54235 32.5821 5.66711 32.5821H5.9811C6.17186 32.5821 6.36009 32.5719 6.54663 32.5542C6.67493 32.5728 6.80661 32.5821 6.93997 32.5821H24.8402C26.3511 32.5821 27.5809 31.3531 27.5809 29.8414V2.74071C27.5809 1.22982 26.352 0 24.8402 0L24.8394 0.000844898ZM5.66711 1.35136H5.9811C8.36139 1.35136 10.2977 3.28767 10.2977 5.66795V23.5834C9.27214 22.2312 7.64815 21.3559 5.82411 21.3559C4.00006 21.3559 2.37607 22.2312 1.35052 23.5834V5.66795C1.35052 3.28767 3.28682 1.35136 5.66711 1.35136ZM5.82411 31.2316C3.47336 31.2316 1.56154 29.3197 1.56154 26.969C1.56154 24.6182 3.47336 22.7064 5.82411 22.7064C8.17485 22.7064 10.0867 24.6182 10.0867 26.969C10.0867 29.3197 8.17485 31.2316 5.82411 31.2316ZM11.6482 26.915V5.66795C11.6482 3.94014 10.87 2.39126 9.64691 1.35136H24.8394C25.6058 1.35136 26.2296 1.97513 26.2296 2.74155V24.257C25.8126 25.5704 25.0133 27.1294 23.4956 28.5989C21.9704 30.076 19.7614 30.8424 17.6732 31.2324H9.64691C10.87 30.1917 11.6482 28.6436 11.6482 26.9158V26.915Z" fill="black"/>
<path d="M5.80318 23.8047C4.03485 23.8047 2.5957 25.2438 2.5957 27.0122C2.5957 28.7805 4.03485 30.2196 5.80318 30.2196C7.57152 30.2196 9.01066 28.7805 9.01066 27.0122C9.01066 25.2438 7.57152 23.8047 5.80318 23.8047ZM5.80318 28.8691C4.77932 28.8691 3.94622 28.036 3.94622 27.0122C3.94622 25.9883 4.77932 25.1552 5.80318 25.1552C6.82704 25.1552 7.66014 25.9883 7.66014 27.0122C7.66014 28.036 6.82704 28.8691 5.80318 28.8691Z" fill="black"/>
</svg>
