<svg width="35" height="21" viewBox="0 0 35 21" fill="none" xmlns="http://www.w3.org/2000/svg">
<path d="M32.1959 0H27.9398C26.3932 0 25.1357 1.25294 25.1357 2.79383V8.768C24.9249 8.69344 24.6987 8.65316 24.463 8.65316H10.4931C10.2738 8.65316 10.0622 8.6883 9.86434 8.75343V2.79383C9.86434 1.25294 8.60678 0 7.06021 0H2.80413C1.25842 0 0 1.25294 0 2.79383V18.2062C0 19.7471 1.25756 21 2.80413 21H7.06021C8.60592 21 9.86434 19.7471 9.86434 18.2062V12.9665C10.0622 13.0316 10.2738 13.0667 10.4931 13.0667H24.463C24.6987 13.0667 24.9258 13.0256 25.1357 12.9519V18.2062C25.1357 19.7471 26.3932 21 27.9398 21H32.1959C33.7424 21 35 19.7471 35 18.2062V2.79383C35 1.25294 33.7424 0 32.1959 0ZM2.80413 1.3712H7.06021C7.84726 1.3712 8.48808 2.00967 8.48808 2.79383V10.416C8.47776 10.4983 8.47174 10.5823 8.47174 10.6671V11.0528C8.47174 11.1376 8.47776 11.2216 8.48808 11.3039V18.2062C8.48808 18.6998 8.23433 19.1343 7.8507 19.3897C7.44212 19.3888 6.90968 19.3477 6.33079 19.1986C5.15839 18.8978 3.54645 18.0828 2.52716 15.9094C1.99042 14.7653 1.62485 13.5698 1.37626 12.4445V2.79383C1.37626 2.00967 2.01708 1.3712 2.80413 1.3712ZM25.1081 11.0528C25.1081 11.4076 24.8191 11.6955 24.463 11.6955H10.4931C10.186 11.6955 9.92886 11.4804 9.86434 11.1942V10.5249C9.92972 10.2386 10.186 10.0235 10.4931 10.0235H24.463C24.8191 10.0235 25.1081 10.3115 25.1081 10.6663V11.0519V11.0528ZM33.6237 18.2062C33.6237 18.9903 32.9829 19.6288 32.1959 19.6288H27.9398C27.1527 19.6288 26.5119 18.9903 26.5119 18.2062V2.79383C26.5119 2.00967 27.1527 1.3712 27.9398 1.3712H32.1959C32.9829 1.3712 33.6237 2.00967 33.6237 2.79383V18.2062Z" fill="#222D48"/>
</svg>
