<svg width="55" height="32" viewBox="0 0 55 32" fill="none" xmlns="http://www.w3.org/2000/svg">
<path d="M46.9078 9.42969C42.7017 9.42969 39.2793 12.8521 39.2793 17.0582C39.2793 21.2643 42.7017 24.6868 46.9078 24.6868C51.1139 24.6868 54.5364 21.2643 54.5364 17.0582C54.5364 12.8521 51.1139 9.42969 46.9078 9.42969ZM46.9078 23.3253C43.4522 23.3253 40.6408 20.5138 40.6408 17.0582C40.6408 13.6026 43.4522 10.7912 46.9078 10.7912C50.3634 10.7912 53.1749 13.6026 53.1749 17.0582C53.1749 20.5138 50.3634 23.3253 46.9078 23.3253Z" fill="#222D48"/>
<path d="M45.2324 14.834L44.1066 15.9598L42.98 14.834L42.0176 15.7964L43.1433 16.923L42.0176 18.0488L42.98 19.012L44.1066 17.8854L45.2324 19.012L46.1956 18.0488L45.069 16.923L46.1956 15.7964L45.2324 14.834Z" fill="#222D48"/>
<path d="M35.8671 17.3188C35.7401 17.1421 35.5399 17.0377 35.3271 17.0377H8.14561V5.12376C8.14561 5.1168 8.14561 5.10723 8.14561 5.10026C8.14561 5.08025 8.09683 3.11359 9.07592 2.05542C9.48051 1.61771 10.0054 1.40103 10.6808 1.39233C11.3537 1.38362 11.8651 1.58377 12.2504 2.00495C13.2034 3.04484 13.0865 5.05762 13.0856 5.0759C13.0596 5.45966 13.3388 5.79208 13.7098 5.81905C14.0824 5.84603 14.402 5.55712 14.4281 5.17336C14.4357 5.06633 14.5896 2.54012 13.232 1.05208C12.5944 0.353303 11.7507 0 10.722 0C10.7027 0 10.6833 0 10.664 0C9.62098 0.0130531 8.75797 0.38289 8.09851 1.0982C6.76783 2.54274 6.79474 4.90534 6.80063 5.13333V17.0377H0.672917C0.460108 17.0377 0.259913 17.1421 0.132901 17.3188C0.00588859 17.4954 -0.0328031 17.7243 0.0286002 17.9349C0.0386939 17.9688 1.04807 21.4079 2.49567 24.7999C4.56404 29.6444 6.46165 32 8.29618 32C10.1307 32 14.1833 31.9948 18.0988 31.9896C21.9698 31.9843 25.9719 31.9791 27.7677 31.9791C29.5636 31.9791 31.4604 29.627 33.5161 24.7886C34.9545 21.4018 35.9613 17.9697 35.9714 17.9349C36.0328 17.7243 35.9941 17.4954 35.8671 17.3188ZM32.2796 24.2387C29.8437 29.9681 28.3128 30.5868 27.7677 30.5868C25.9997 30.5868 22.0951 30.592 18.2814 30.5972C15.9623 30.1256 12.1873 29.1736 8.83619 27.488C6.08482 26.1044 4.41347 24.6581 3.40157 23.459C2.5823 21.447 1.93715 19.5152 1.59312 18.43H34.4069C34.0183 19.6544 33.2486 21.9587 32.2796 24.2387Z" fill="#222D48"/>
<path d="M48.424 18.024C48.728 17.856 49.056 17.68 49.4 17.464C50.432 16.792 50.8 16.304 50.8 15.592C50.8 14.664 50.184 14.12 49.128 14.12C47.944 14.12 47.24 14.824 47.24 16H48.32C48.32 15.448 48.608 15.112 49.072 15.112C49.472 15.112 49.72 15.352 49.72 15.728C49.72 16.072 49.528 16.328 48.944 16.768C48.44 17.136 47.864 17.448 47.232 17.736V19H51.008V18.024H48.424Z" fill="#222D48"/>
</svg>
