<svg width="28" height="32" viewBox="0 0 28 32" fill="none" xmlns="http://www.w3.org/2000/svg">
<path d="M13.0189 5.05309C13.6512 3.52651 12.9262 1.77638 11.3997 1.14406C9.8731 0.511728 8.12297 1.23665 7.49064 2.76322C6.85831 4.2898 7.58324 6.03995 9.10981 6.67227C10.6364 7.3046 12.3865 6.57966 13.0189 5.05309Z" fill="#222D48"/>
<path d="M27.1371 26.0346L22.5702 17.9244C22.5702 17.9244 22.0239 16.6898 20.722 16.6898H14.8566L14.1452 13.3584H18.7904C18.7904 13.3584 19.814 13.3584 19.814 12.2564C19.814 11.1545 18.8695 10.8388 18.8695 10.8388H13.5155L12.8858 8.31922C12.8858 8.31922 12.0196 7.21728 10.6028 7.45298C8.69842 7.77038 8.71289 9.26375 8.71289 9.26375L10.5237 18.161C10.5237 18.161 10.6811 19.8935 11.8622 19.8935H20.1987L24.5392 27.6097C24.5392 27.6097 25.5152 28.538 26.5074 28.0036C27.5311 27.4522 27.1371 26.0355 27.1371 26.0355V26.0346Z" fill="#222D48"/>
<path d="M12.6864 29.4356C11.142 29.2509 8.04548 28.5387 5.31742 25.8106C2.78167 23.2749 2.02093 20.0031 1.79544 18.0919C2.63785 15.4932 4.64945 13.3599 7.31709 12.4188L6.8644 11.1348C2.75869 12.583 0 16.482 0 20.8378C0 26.5101 4.61455 31.1247 10.2868 31.1247C15.2605 31.1247 19.5168 27.578 20.4068 22.692L19.0675 22.4478C18.4438 25.8728 15.9123 28.5379 12.6864 29.4356Z" fill="#222D48"/>
</svg>
