<svg width="36" height="33" viewBox="0 0 36 33" fill="none" xmlns="http://www.w3.org/2000/svg">
<path d="M31.2965 0H22.3136L18.1582 5.42698V29.3308C18.1582 31.0315 19.4415 32.4149 21.0101 32.4149L32.5723 32.5214C34.1495 32.5214 35.4317 31.138 35.4317 29.4394L35.4508 19.9294V5.42698L31.2954 0H31.2965ZM33.748 19.9273L33.7288 29.4373C33.7288 30.186 33.1995 30.8175 32.5808 30.8175L21.0187 30.711C20.3925 30.711 19.8632 30.0784 19.8632 29.3308V6.00418L23.156 1.70392H30.4562L33.7491 6.00418V19.9273H33.748Z" fill="#222D48"/>
<path d="M25.8719 14.0508H22.7324V18.6599H25.8719V14.0508Z" fill="#222D48"/>
<path d="M30.8738 14.0508H27.7344V18.6599H30.8738V14.0508Z" fill="#222D48"/>
<path d="M25.8719 8.38672H22.7324V12.9958H25.8719V8.38672Z" fill="#222D48"/>
<path d="M30.8738 8.38672H27.7344V12.9958H30.8738V8.38672Z" fill="#222D48"/>
<path d="M25.8719 19.7168H22.7324V24.3259H25.8719V19.7168Z" fill="#222D48"/>
<path d="M30.8738 19.7168H27.7344V24.3259H30.8738V19.7168Z" fill="#222D48"/>
<path d="M17.2948 9.88332L8.64739 4.0293L0 9.88332V22.8203H0.0181088L0.0532474 29.3304C0.0532474 31.0311 1.33651 32.4144 2.90518 32.4144L14.4673 32.5209C16.0445 32.5209 17.3267 31.1376 17.3267 29.4337L17.2937 19.5893V9.88226L17.2948 9.88332ZM1.70498 10.7875L8.64845 6.08678L15.5919 10.7875V19.5914L15.6249 29.4368C15.6249 30.1855 15.0957 30.817 14.4769 30.817L10.5387 30.7808C8.35133 30.3793 5.99141 29.5529 4.3844 27.8916C2.96695 26.4252 2.17143 24.8778 1.72735 23.5338L1.71457 21.1537H1.70605V10.7885L1.70498 10.7875Z" fill="#222D48"/>
<path d="M7.71564 14.0508H4.57617V18.6599H7.71564V14.0508Z" fill="#222D48"/>
<path d="M12.7196 14.0508H9.58008V18.6599H12.7196V14.0508Z" fill="#222D48"/>
<path d="M7.71564 19.7168H4.57617V24.3259H7.71564V19.7168Z" fill="#222D48"/>
<path d="M12.7196 19.7168H9.58008V24.3259H12.7196V19.7168Z" fill="#222D48"/>
</svg>
