<svg width="29" height="34" viewBox="0 0 29 34" fill="none" xmlns="http://www.w3.org/2000/svg">
<path d="M6.34888 8.88852H12.1973C13.032 8.88852 13.7102 8.20948 13.7102 7.37558V4.95044C13.7102 4.11569 13.0312 3.4375 12.1973 3.4375H6.34888C5.51412 3.4375 4.83594 4.11654 4.83594 4.95044V7.37558C4.83594 8.21033 5.51497 8.88852 6.34888 8.88852ZM6.19742 4.94959C6.19742 4.8662 6.26549 4.79813 6.34888 4.79813H12.1973C12.2807 4.79813 12.3487 4.8662 12.3487 4.94959V7.37472C12.3487 7.45812 12.2807 7.52619 12.1973 7.52619H6.34888C6.26549 7.52619 6.19742 7.45812 6.19742 7.37472V4.94959Z" fill="#222D48"/>
<path d="M16.5774 8.93539H22.4258C23.2606 8.93539 23.9387 8.25636 23.9387 7.42245V4.99732C23.9387 4.16256 23.2597 3.48438 22.4258 3.48438H16.5774C15.7426 3.48438 15.0645 4.16341 15.0645 4.99732V7.42245C15.0645 8.25721 15.7435 8.93539 16.5774 8.93539ZM16.4259 4.99647C16.4259 4.91308 16.494 4.845 16.5774 4.845H22.4258C22.5092 4.845 22.5773 4.91308 22.5773 4.99647V7.4216C22.5773 7.50499 22.5092 7.57306 22.4258 7.57306H16.5774C16.494 7.57306 16.4259 7.50499 16.4259 7.4216V4.99647Z" fill="#222D48"/>
<path d="M26.0723 0H2.77401C1.24405 0 0 1.24405 0 2.77401V30.412C0 31.9411 1.24405 33.186 2.77401 33.186H26.0723C27.6023 33.186 28.8463 31.942 28.8463 30.412V2.77401C28.8463 1.2449 27.6023 0 26.0723 0ZM2.77401 1.36148H26.0723C26.8509 1.36148 27.4848 1.99542 27.4848 2.77401V10.2111H1.36148V2.77401C1.36148 1.99542 1.99542 1.36148 2.77401 1.36148ZM27.4848 11.5726V12.8489H1.36148V11.5726H27.4848ZM26.0723 31.8245H9.93028C7.8251 31.4314 5.59823 30.6588 4.06061 29.1697C2.59617 27.752 1.79545 26.2518 1.36148 24.9653V14.2104H27.4848V30.412C27.4848 31.1906 26.8509 31.8245 26.0723 31.8245Z" fill="#222D48"/>
</svg>
