<svg width="23" height="30" viewBox="0 0 23 30" fill="none" xmlns="http://www.w3.org/2000/svg">
<path d="M23 29.3561L19.056 21.2756C20.4679 21.2756 21.4067 21.2756 21.4067 21.2756V19.8305C21.4067 19.8305 18.8381 19.8305 15.8046 19.8305C14.0726 19.3997 11.3813 18.5814 8.37883 17.1274L12.0197 9.66644H17.2769V8.22139H2.878C1.98624 3.90794 1.41277 0.0442544 1.40655 0L0 0.214047C0.00800186 0.265526 0.770845 5.41169 1.91155 10.4919C2.58549 13.4931 3.25942 15.8919 3.9138 17.6196C4.36279 18.8045 4.802 19.6824 5.25278 20.2803L0.876652 29.2477L2.15161 29.8898L6.3926 21.1997C6.54908 21.2512 6.70822 21.2774 6.87093 21.2774C8.81094 21.2774 13.8654 21.2774 17.4681 21.2774L21.725 30L23 29.3579V29.3561ZM10.4326 9.66553L7.11987 16.4536C5.85203 15.6932 4.9247 14.8451 4.24899 13.9943C3.95203 12.9277 3.63462 11.6669 3.30032 10.1749C3.26209 10.0051 3.22475 9.83442 3.18741 9.66463H10.4335L10.4326 9.66553Z" fill="#222D48"/>
</svg>
