<svg width="29" height="21" viewBox="0 0 29 21" fill="none" xmlns="http://www.w3.org/2000/svg">
<path d="M27.6528 0V3.21451C26.7605 3.37703 26.095 3.8092 25.4479 4.23029C24.4925 4.85269 23.5042 5.49633 21.5141 5.49633C19.524 5.49633 18.5796 4.84069 17.6957 4.20536C16.9703 3.68454 16.2196 3.14525 15.0333 3.14525C13.847 3.14525 12.9068 3.71685 12.0331 4.26907C11.0835 4.86931 10.102 5.49078 8.55256 5.49078C7.13626 5.49078 6.11511 4.97458 5.03245 4.4279C4.01299 3.91262 2.87557 3.33916 1.34805 3.19418V0H0V18.3257C0 19.8004 1.01525 21 2.2622 21H26.7378C27.9856 21 29 19.8004 29 18.3257V0H27.6519H27.6528ZM4.4688 5.76966C5.63487 6.35882 6.84137 6.96829 8.55256 6.96829C10.4634 6.96829 11.6556 6.21384 12.7071 5.54896C13.5252 5.03183 14.1706 4.62276 15.0333 4.62276C15.8177 4.62276 16.2954 4.96628 16.9568 5.44093C17.9072 6.12335 19.0901 6.97291 21.5132 6.97291C23.9364 6.97291 25.1286 6.15567 26.1362 5.4991C26.6628 5.15651 27.1119 4.86469 27.6519 4.71971V7.1733C26.7597 7.33583 26.0941 7.768 25.447 8.18909C24.4916 8.81149 23.5033 9.45512 21.5132 9.45512C19.5232 9.45512 18.5787 8.79948 17.6949 8.16416C16.9695 7.64333 16.2188 7.10404 15.0325 7.10404C13.8462 7.10404 12.9059 7.67565 12.0322 8.22787C11.0827 8.8281 10.1011 9.44958 8.55172 9.44958C7.13542 9.44958 6.11426 8.93337 5.03161 8.3867C4.01214 7.87142 2.87472 7.29796 1.34721 7.15298V4.67631C2.57478 4.8139 3.49904 5.27839 4.46711 5.76782L4.4688 5.76966ZM27.6528 8.68128V11.1349C26.7605 11.2974 26.095 11.7296 25.4479 12.1506C24.4925 12.773 23.5042 13.4167 21.5141 13.4167C19.524 13.4167 18.5796 12.7611 17.6957 12.1257C16.9703 11.6049 16.2196 11.0656 15.0333 11.0656C13.847 11.0656 12.9068 11.6372 12.0331 12.1894C11.0835 12.7897 10.102 13.4111 8.55256 13.4111C7.13626 13.4111 6.11511 12.8949 5.03245 12.3483C4.01299 11.833 2.87557 11.2595 1.34805 11.1145V8.63788C2.57563 8.77547 3.49989 9.23996 4.46796 9.72938C5.63402 10.3185 6.84053 10.928 8.55172 10.928C10.4626 10.928 11.6548 10.1736 12.7062 9.50868C13.5243 8.99155 14.1697 8.58247 15.0325 8.58247C15.8169 8.58247 16.2946 8.926 16.956 9.40065C17.9064 10.0831 19.0893 10.9326 21.5124 10.9326C23.9355 10.9326 25.1277 10.1154 26.1354 9.45882C26.662 9.11623 27.111 8.82441 27.6511 8.67943L27.6528 8.68128ZM26.7386 19.5225H8.23408C6.58019 19.0358 4.95831 18.2454 3.75938 16.9729C2.56467 15.705 1.8165 14.3761 1.3489 13.1664V12.5985C2.57647 12.7361 3.50073 13.2006 4.4688 13.69C5.63487 14.2792 6.84137 14.8887 8.55256 14.8887C10.4634 14.8887 11.6556 14.1342 12.7071 13.4693C13.5252 12.9522 14.1706 12.5431 15.0333 12.5431C15.8177 12.5431 16.2954 12.8866 16.9568 13.3613C17.9072 14.0437 19.0901 14.8933 21.5132 14.8933C23.9364 14.8933 25.1286 14.076 26.1362 13.4195C26.6628 13.0769 27.1119 12.7851 27.6519 12.6401V18.3239C27.6519 18.973 27.2332 19.5206 26.7378 19.5206L26.7386 19.5225Z" fill="#222D48"/>
</svg>
