<svg width="41" height="34" viewBox="0 0 41 34" fill="none" xmlns="http://www.w3.org/2000/svg">
<path d="M7.62853 8.67188C3.42241 8.67188 0 12.0943 0 16.3004C0 20.5065 3.42241 23.9289 7.62853 23.9289C11.8346 23.9289 15.2571 20.5065 15.2571 16.3004C15.2571 12.0943 11.8346 8.67188 7.62853 8.67188ZM7.62853 22.5675C4.17293 22.5675 1.36148 19.756 1.36148 16.3004C1.36148 12.8448 4.17293 10.0334 7.62853 10.0334C11.0841 10.0334 13.8956 12.8448 13.8956 16.3004C13.8956 19.756 11.0841 22.5675 7.62853 22.5675Z" fill="#222D48"/>
<path d="M8.30988 11.4062H6.9484V15.6183H2.73633V16.9798H6.9484V21.1919H8.30988V16.9798H12.522V15.6183H8.30988V11.4062Z" fill="#222D48"/>
<path d="M25.9055 8.84946H31.7539C32.5887 8.84946 33.2669 8.17042 33.2669 7.33651V4.91138C33.2669 4.07662 32.5878 3.39844 31.7539 3.39844H25.9055C25.0708 3.39844 24.3926 4.07747 24.3926 4.91138V7.33651C24.3926 8.17127 25.0716 8.84946 25.9055 8.84946ZM25.7541 4.91053C25.7541 4.82714 25.8221 4.75906 25.9055 4.75906H31.7539C31.8373 4.75906 31.9054 4.82714 31.9054 4.91053V7.33566C31.9054 7.41905 31.8373 7.48713 31.7539 7.48713H25.9055C25.8221 7.48713 25.7541 7.41905 25.7541 7.33566V4.91053Z" fill="#222D48"/>
<path d="M37.4788 0H20.1837C18.7253 0 17.5391 1.18619 17.5391 2.64467V30.5414C17.5391 31.9998 18.7253 33.186 20.1837 33.186H37.4788C38.9372 33.186 40.1234 31.9998 40.1234 30.5414V2.64467C40.1234 1.18619 38.9372 0 37.4788 0ZM20.1837 1.36148H37.4788C38.1867 1.36148 38.762 1.93755 38.762 2.64467V10.2111H18.9005V2.64467C18.9005 1.9367 19.4766 1.36148 20.1837 1.36148ZM38.762 11.5726V12.8489H18.9005V11.5726H38.762ZM37.4788 31.8245H27.5698C25.4646 31.4314 23.2377 30.6588 21.7001 29.1697C20.1148 27.6346 19.3073 26.0042 18.9005 24.6513V14.2104H38.762V30.5414C38.762 31.2493 38.1859 31.8245 37.4788 31.8245Z" fill="#222D48"/>
</svg>
